<?xml version="1.0" encoding="UTF-8" standalone="no"?>
<!DOCTYPE svg PUBLIC "-//W3C//DTD SVG 1.1//EN"
 "http://www.w3.org/Graphics/SVG/1.1/DTD/svg11.dtd">
<!-- Generated by graphviz version 2.40.1 (20161225.0304)
 -->
<!-- Title: G Pages: 1 -->
<svg width="788pt" height="472pt"
 viewBox="0.00 0.00 788.05 471.90" xmlns="http://www.w3.org/2000/svg" xmlns:xlink="http://www.w3.org/1999/xlink">
<g id="graph0" class="graph" transform="scale(1 1) rotate(0) translate(4 467.9011)">
<title>G</title>
<polygon fill="#ffffff" stroke="transparent" points="-4,4 -4,-467.9011 784.0542,-467.9011 784.0542,4 -4,4"/>
<!-- advect -->
<g id="node1" class="node">
<title>advect</title>
<ellipse fill="none" stroke="#000000" cx="395.6713" cy="-85.2734" rx="34" ry="18"/>
<text text-anchor="middle" x="395.6713" y="-81.5734" font-family="Times,serif" font-size="14.00" fill="#000000">advect</text>
</g>
<!-- build_index -->
<g id="node2" class="node">
<title>build_index</title>
<ellipse fill="none" stroke="#000000" cx="727.4089" cy="-223.2734" rx="52.7911" ry="18"/>
<text text-anchor="middle" x="727.4089" y="-219.5734" font-family="Times,serif" font-size="14.00" fill="#000000">build_index</text>
</g>
<!-- advect&#45;&gt;build_index -->
<g id="edge1" class="edge">
<title>advect&#45;&gt;build_index</title>
<path fill="none" stroke="#000000" d="M429.1162,-81.2792C478.321,-77.0274 571.6392,-75.2748 638.7636,-112.2734 673.3883,-131.3584 699.41,-170.0695 714.0254,-196.3419"/>
<polygon fill="#000000" stroke="#000000" points="711.0743,-198.2446 718.8887,-205.399 717.2415,-194.933 711.0743,-198.2446"/>
</g>
<!-- setBoundry -->
<g id="node3" class="node">
<title>setBoundry</title>
<ellipse fill="none" stroke="#000000" cx="578.7636" cy="-139.2734" rx="51.5" ry="18"/>
<text text-anchor="middle" x="578.7636" y="-135.5734" font-family="Times,serif" font-size="14.00" fill="#000000">setBoundry</text>
</g>
<!-- advect&#45;&gt;setBoundry -->
<g id="edge2" class="edge">
<title>advect&#45;&gt;setBoundry</title>
<path fill="none" stroke="#000000" d="M425.4957,-94.0696C453.596,-102.3573 496.2191,-114.9283 529.3896,-124.7114"/>
<polygon fill="#000000" stroke="#000000" points="528.7722,-128.1783 539.3539,-127.6502 530.7525,-121.4642 528.7722,-128.1783"/>
</g>
<!-- setBoundry&#45;&gt;build_index -->
<g id="edge3" class="edge">
<title>setBoundry&#45;&gt;build_index</title>
<path fill="none" stroke="#000000" d="M607.5802,-154.3385C617.5088,-159.6094 628.6677,-165.6231 638.7636,-171.2734 656.6298,-181.2726 676.2899,-192.7555 692.5461,-202.3831"/>
<polygon fill="#000000" stroke="#000000" points="690.8089,-205.4221 701.1941,-207.5196 694.3836,-199.4036 690.8089,-205.4221"/>
</g>
<!-- buoyancy -->
<g id="node4" class="node">
<title>buoyancy</title>
<ellipse fill="none" stroke="#000000" cx="395.6713" cy="-415.2734" rx="45" ry="18"/>
<text text-anchor="middle" x="395.6713" y="-411.5734" font-family="Times,serif" font-size="14.00" fill="#000000">buoyancy</text>
</g>
<!-- buoyancy&#45;&gt;build_index -->
<g id="edge4" class="edge">
<title>buoyancy&#45;&gt;build_index</title>
<path fill="none" stroke="#000000" d="M424.0028,-429.421C472.4952,-451.4162 572.5667,-486.8928 638.7636,-442.2734 702.9539,-399.0064 720.6776,-300.5106 725.5599,-251.7317"/>
<polygon fill="#000000" stroke="#000000" points="729.0645,-251.8329 726.4618,-241.5627 722.0919,-251.2144 729.0645,-251.8329"/>
</g>
<!-- c_densitySolver -->
<g id="node5" class="node">
<title>c_densitySolver</title>
<ellipse fill="none" stroke="#000000" cx="70.1938" cy="-62.2734" rx="67.6881" ry="18"/>
<text text-anchor="middle" x="70.1938" y="-58.5734" font-family="Times,serif" font-size="14.00" fill="#000000">c_densitySolver</text>
</g>
<!-- c_densitySolver&#45;&gt;advect -->
<g id="edge5" class="edge">
<title>c_densitySolver&#45;&gt;advect</title>
<path fill="none" stroke="#000000" d="M95.0531,-45.3591C115.7777,-32.341 146.6194,-15.4074 176.3875,-8.2734 217.9621,1.6899 231.4862,3.5206 272.579,-8.2734 309.6945,-18.9259 346.4665,-44.401 370.0162,-63.1451"/>
<polygon fill="#000000" stroke="#000000" points="368.1067,-66.1039 378.0704,-69.7063 372.5279,-60.6768 368.1067,-66.1039"/>
</g>
<!-- addSource -->
<g id="node6" class="node">
<title>addSource</title>
<ellipse fill="none" stroke="#000000" cx="224.4833" cy="-35.2734" rx="48.1917" ry="18"/>
<text text-anchor="middle" x="224.4833" y="-31.5734" font-family="Times,serif" font-size="14.00" fill="#000000">addSource</text>
</g>
<!-- c_densitySolver&#45;&gt;addSource -->
<g id="edge6" class="edge">
<title>c_densitySolver&#45;&gt;addSource</title>
<path fill="none" stroke="#000000" d="M126.7694,-52.3729C141.0259,-49.8781 156.2935,-47.2063 170.4231,-44.7337"/>
<polygon fill="#000000" stroke="#000000" points="171.2328,-48.1453 180.4798,-42.9738 170.0261,-41.2501 171.2328,-48.1453"/>
</g>
<!-- swap -->
<g id="node7" class="node">
<title>swap</title>
<ellipse fill="none" stroke="#000000" cx="224.4833" cy="-143.2734" rx="28.6953" ry="18"/>
<text text-anchor="middle" x="224.4833" y="-139.5734" font-family="Times,serif" font-size="14.00" fill="#000000">swap</text>
</g>
<!-- c_densitySolver&#45;&gt;swap -->
<g id="edge7" class="edge">
<title>c_densitySolver&#45;&gt;swap</title>
<path fill="none" stroke="#000000" d="M101.0457,-78.4703C127.7921,-92.5118 166.3192,-112.7381 193.1932,-126.8465"/>
<polygon fill="#000000" stroke="#000000" points="191.6935,-130.0122 202.1745,-131.5616 194.9473,-123.8144 191.6935,-130.0122"/>
</g>
<!-- diffuse -->
<g id="node8" class="node">
<title>diffuse</title>
<ellipse fill="none" stroke="#000000" cx="224.4833" cy="-89.2734" rx="35.194" ry="18"/>
<text text-anchor="middle" x="224.4833" y="-85.5734" font-family="Times,serif" font-size="14.00" fill="#000000">diffuse</text>
</g>
<!-- c_densitySolver&#45;&gt;diffuse -->
<g id="edge8" class="edge">
<title>c_densitySolver&#45;&gt;diffuse</title>
<path fill="none" stroke="#000000" d="M126.7694,-72.1739C144.7174,-75.3147 164.2678,-78.736 181.1327,-81.6873"/>
<polygon fill="#000000" stroke="#000000" points="180.7944,-85.1812 191.2481,-83.4574 182.0011,-78.2859 180.7944,-85.1812"/>
</g>
<!-- linearSolver -->
<g id="node9" class="node">
<title>linearSolver</title>
<ellipse fill="none" stroke="#000000" cx="395.6713" cy="-139.2734" rx="54" ry="18"/>
<text text-anchor="middle" x="395.6713" y="-135.5734" font-family="Times,serif" font-size="14.00" fill="#000000">linearSolver</text>
</g>
<!-- diffuse&#45;&gt;linearSolver -->
<g id="edge9" class="edge">
<title>diffuse&#45;&gt;linearSolver</title>
<path fill="none" stroke="#000000" d="M255.0883,-98.2124C280.1454,-105.531 316.1057,-116.0342 345.3835,-124.5855"/>
<polygon fill="#000000" stroke="#000000" points="344.4507,-127.9593 355.0309,-127.4033 346.4133,-121.24 344.4507,-127.9593"/>
</g>
<!-- linearSolver&#45;&gt;build_index -->
<g id="edge10" class="edge">
<title>linearSolver&#45;&gt;build_index</title>
<path fill="none" stroke="#000000" d="M438.7001,-150.1688C499.2733,-165.5067 609.5714,-193.4355 674.8969,-209.9768"/>
<polygon fill="#000000" stroke="#000000" points="674.4274,-213.4683 684.9806,-212.5301 676.1457,-206.6824 674.4274,-213.4683"/>
</g>
<!-- linearSolver&#45;&gt;setBoundry -->
<g id="edge11" class="edge">
<title>linearSolver&#45;&gt;setBoundry</title>
<path fill="none" stroke="#000000" d="M450.1093,-139.2734C471.1302,-139.2734 495.2933,-139.2734 516.962,-139.2734"/>
<polygon fill="#000000" stroke="#000000" points="517.0471,-142.7735 527.047,-139.2734 517.047,-135.7735 517.0471,-142.7735"/>
</g>
<!-- c_velocitySolver -->
<g id="node10" class="node">
<title>c_velocitySolver</title>
<ellipse fill="none" stroke="#000000" cx="70.1938" cy="-189.2734" rx="70.3881" ry="18"/>
<text text-anchor="middle" x="70.1938" y="-185.5734" font-family="Times,serif" font-size="14.00" fill="#000000">c_velocitySolver</text>
</g>
<!-- c_velocitySolver&#45;&gt;advect -->
<g id="edge12" class="edge">
<title>c_velocitySolver&#45;&gt;advect</title>
<path fill="none" stroke="#000000" d="M133.6225,-197.251C176.0003,-199.4059 231.3237,-195.8208 272.579,-170.2734 298.3734,-154.3002 284.5731,-130.8263 308.579,-112.2734 321.1984,-102.5206 337.3742,-96.2624 352.3527,-92.2588"/>
<polygon fill="#000000" stroke="#000000" points="353.5645,-95.5675 362.4727,-89.832 351.9321,-88.7605 353.5645,-95.5675"/>
</g>
<!-- c_velocitySolver&#45;&gt;buoyancy -->
<g id="edge13" class="edge">
<title>c_velocitySolver&#45;&gt;buoyancy</title>
<path fill="none" stroke="#000000" d="M85.9446,-206.9075C105.7214,-228.4283 141.324,-265.1696 176.3875,-291.2734 235.5041,-335.2839 311.8089,-375.0834 357.0582,-397.1459"/>
<polygon fill="#000000" stroke="#000000" points="355.6988,-400.3763 366.2251,-401.5798 358.7468,-394.0747 355.6988,-400.3763"/>
</g>
<!-- c_velocitySolver&#45;&gt;addSource -->
<g id="edge14" class="edge">
<title>c_velocitySolver&#45;&gt;addSource</title>
<path fill="none" stroke="#000000" d="M81.8916,-171.5159C99.8511,-145.2318 136.3647,-95.5055 176.3875,-62.2734 179.4495,-59.731 182.785,-57.3024 186.2244,-55.0177"/>
<polygon fill="#000000" stroke="#000000" points="188.2313,-57.8918 194.8916,-49.6522 184.5467,-51.94 188.2313,-57.8918"/>
</g>
<!-- c_velocitySolver&#45;&gt;swap -->
<g id="edge15" class="edge">
<title>c_velocitySolver&#45;&gt;swap</title>
<path fill="none" stroke="#000000" d="M116.068,-175.5964C139.2266,-168.6919 166.911,-160.4381 188.5074,-153.9993"/>
<polygon fill="#000000" stroke="#000000" points="189.6847,-157.3006 198.2678,-151.0893 187.6847,-150.5924 189.6847,-157.3006"/>
</g>
<!-- c_velocitySolver&#45;&gt;diffuse -->
<g id="edge16" class="edge">
<title>c_velocitySolver&#45;&gt;diffuse</title>
<path fill="none" stroke="#000000" d="M93.8211,-172.117C115.0735,-156.9069 147.3298,-134.3654 176.3875,-116.2734 181.1633,-113.3 186.28,-110.2693 191.3298,-107.3642"/>
<polygon fill="#000000" stroke="#000000" points="193.2802,-110.2821 200.2589,-102.3103 189.8322,-104.1902 193.2802,-110.2821"/>
</g>
<!-- vorticityConfinement -->
<g id="node11" class="node">
<title>vorticityConfinement</title>
<ellipse fill="none" stroke="#000000" cx="395.6713" cy="-315.2734" rx="87.1846" ry="18"/>
<text text-anchor="middle" x="395.6713" y="-311.5734" font-family="Times,serif" font-size="14.00" fill="#000000">vorticityConfinement</text>
</g>
<!-- c_velocitySolver&#45;&gt;vorticityConfinement -->
<g id="edge17" class="edge">
<title>c_velocitySolver&#45;&gt;vorticityConfinement</title>
<path fill="none" stroke="#000000" d="M90.3871,-206.5298C110.805,-223.1287 143.9026,-247.7786 176.3875,-262.2734 220.0962,-281.7763 272.0436,-294.7366 314.4043,-302.9565"/>
<polygon fill="#000000" stroke="#000000" points="313.9225,-306.4273 324.3982,-304.843 315.221,-299.5488 313.9225,-306.4273"/>
</g>
<!-- project -->
<g id="node12" class="node">
<title>project</title>
<ellipse fill="none" stroke="#000000" cx="224.4833" cy="-235.2734" rx="35.194" ry="18"/>
<text text-anchor="middle" x="224.4833" y="-231.5734" font-family="Times,serif" font-size="14.00" fill="#000000">project</text>
</g>
<!-- c_velocitySolver&#45;&gt;project -->
<g id="edge18" class="edge">
<title>c_velocitySolver&#45;&gt;project</title>
<path fill="none" stroke="#000000" d="M116.068,-202.9504C137.5951,-209.3685 163.0327,-216.9525 183.856,-223.1608"/>
<polygon fill="#000000" stroke="#000000" points="183.0872,-226.5837 193.6703,-226.0868 185.0872,-219.8755 183.0872,-226.5837"/>
</g>
<!-- vorticityConfinement&#45;&gt;build_index -->
<g id="edge19" class="edge">
<title>vorticityConfinement&#45;&gt;build_index</title>
<path fill="none" stroke="#000000" d="M478.4022,-320.9692C526.7901,-321.3689 588.1208,-316.704 638.7636,-296.2734 664.7373,-285.7949 688.8991,-264.8333 705.4158,-248.0497"/>
<polygon fill="#000000" stroke="#000000" points="708.0726,-250.3353 712.4456,-240.685 703.0091,-245.502 708.0726,-250.3353"/>
</g>
<!-- abs -->
<g id="node13" class="node">
<title>abs</title>
<ellipse fill="none" stroke="#000000" cx="578.7636" cy="-361.2734" rx="27" ry="18"/>
<text text-anchor="middle" x="578.7636" y="-357.5734" font-family="Times,serif" font-size="14.00" fill="#000000">abs</text>
</g>
<!-- vorticityConfinement&#45;&gt;abs -->
<g id="edge20" class="edge">
<title>vorticityConfinement&#45;&gt;abs</title>
<path fill="none" stroke="#000000" d="M451.1019,-329.1998C481.0213,-336.7167 517.07,-345.7736 543.2192,-352.3433"/>
<polygon fill="#000000" stroke="#000000" points="542.5204,-355.7764 553.0718,-354.8186 544.2261,-348.9874 542.5204,-355.7764"/>
</g>
<!-- calculate_curl -->
<g id="node14" class="node">
<title>calculate_curl</title>
<ellipse fill="none" stroke="#000000" cx="578.7636" cy="-269.2734" rx="60" ry="18"/>
<text text-anchor="middle" x="578.7636" y="-265.5734" font-family="Times,serif" font-size="14.00" fill="#000000">calculate_curl</text>
</g>
<!-- vorticityConfinement&#45;&gt;calculate_curl -->
<g id="edge21" class="edge">
<title>vorticityConfinement&#45;&gt;calculate_curl</title>
<path fill="none" stroke="#000000" d="M451.1019,-301.3471C473.8395,-295.6345 500.1171,-289.0325 522.8994,-283.3087"/>
<polygon fill="#000000" stroke="#000000" points="523.9153,-286.6623 532.7611,-280.8311 522.2096,-279.8733 523.9153,-286.6623"/>
</g>
<!-- sqrt -->
<g id="node15" class="node">
<title>sqrt</title>
<ellipse fill="none" stroke="#000000" cx="578.7636" cy="-415.2734" rx="27" ry="18"/>
<text text-anchor="middle" x="578.7636" y="-411.5734" font-family="Times,serif" font-size="14.00" fill="#000000">sqrt</text>
</g>
<!-- vorticityConfinement&#45;&gt;sqrt -->
<g id="edge22" class="edge">
<title>vorticityConfinement&#45;&gt;sqrt</title>
<path fill="none" stroke="#000000" d="M422.5518,-332.4054C447.1615,-347.8016 484.8088,-370.6361 518.7636,-388.2734 527.5477,-392.8362 537.26,-397.4037 546.2655,-401.45"/>
<polygon fill="#000000" stroke="#000000" points="545.1212,-404.7707 555.6826,-405.611 547.9504,-398.3679 545.1212,-404.7707"/>
</g>
<!-- project&#45;&gt;build_index -->
<g id="edge24" class="edge">
<title>project&#45;&gt;build_index</title>
<path fill="none" stroke="#000000" d="M259.848,-234.4296C344.1287,-232.4186 557.7416,-227.3217 664.5686,-224.7728"/>
<polygon fill="#000000" stroke="#000000" points="664.963,-228.2645 674.8766,-224.5269 664.7959,-221.2665 664.963,-228.2645"/>
</g>
<!-- project&#45;&gt;setBoundry -->
<g id="edge25" class="edge">
<title>project&#45;&gt;setBoundry</title>
<path fill="none" stroke="#000000" d="M254.3285,-225.5856C270.3471,-220.5027 290.4681,-214.3041 308.579,-209.2734 385.4095,-187.9324 405.6653,-186.6261 482.7636,-166.2734 497.7248,-162.3239 513.9405,-157.8412 528.7111,-153.679"/>
<polygon fill="#000000" stroke="#000000" points="530.0043,-156.9505 538.6729,-150.8591 528.0977,-150.2151 530.0043,-156.9505"/>
</g>
<!-- project&#45;&gt;linearSolver -->
<g id="edge26" class="edge">
<title>project&#45;&gt;linearSolver</title>
<path fill="none" stroke="#000000" d="M246.9626,-221.2471C255.197,-215.8691 264.4779,-209.5201 272.579,-203.2734 289.5317,-190.2014 290.211,-182.2683 308.579,-171.2734 319.7032,-164.6146 332.4411,-158.9798 344.6785,-154.3833"/>
<polygon fill="#000000" stroke="#000000" points="346.1115,-157.5878 354.3449,-150.9199 343.7503,-150.998 346.1115,-157.5878"/>
</g>
<!-- calculate_curl&#45;&gt;build_index -->
<g id="edge23" class="edge">
<title>calculate_curl&#45;&gt;build_index</title>
<path fill="none" stroke="#000000" d="M620.5651,-256.3374C638.6267,-250.7481 659.8802,-244.171 678.6547,-238.3609"/>
<polygon fill="#000000" stroke="#000000" points="679.6983,-241.7018 688.2166,-235.4019 677.6289,-235.0147 679.6983,-241.7018"/>
</g>
</g>
</svg>
